<?xml version="1.0" encoding="iso-8859-1"?>
<!-- Generator: Adobe Illustrator 19.0.0, SVG Export Plug-In . SVG Version: 6.00 Build 0)  -->
<svg version="1.1" id="Layer_1" xmlns="http://www.w3.org/2000/svg" xmlns:xlink="http://www.w3.org/1999/xlink" x="0px" y="0px"
	 viewBox="0 0 512.001 512.001" style="enable-background:new 0 0 512.001 512.001;" xml:space="preserve">
<g>
	<path style="fill:#F95428;" d="M503.295,184.664c0,3.597-0.429,7.102-1.253,10.455c-4.688,19.39-22.163,33.802-43.004,33.802
		h-21.908c8.761,0,16.118-14.4,18.09-33.802c0.348-3.354,0.534-6.846,0.534-10.455c0-12.219-2.077-23.277-5.454-31.296
		c-3.377-8.007-8.03-12.962-13.17-12.962h21.908c12.219,0,23.277,4.955,31.296,12.962
		C498.34,161.387,503.295,172.446,503.295,184.664z"/>
	<path style="fill:#F95428;" d="M455.754,184.664c0,3.609-0.186,7.102-0.534,10.455c-1.973,19.402-9.33,33.802-18.09,33.802h-69.078
		v-20.899h7.241v-36.75h-7.252v-30.866h69.09c5.141,0,9.794,4.955,13.17,12.962C453.676,161.387,455.754,172.446,455.754,184.664z"
		/>
	<polygon style="fill:#F95428;" points="312.538,208.023 319.779,208.023 319.779,228.922 235.651,228.922 235.651,208.023 
		242.892,208.023 242.892,171.274 235.639,171.274 235.639,140.407 319.779,140.407 319.779,171.274 312.538,171.274 	"/>
	<path style="fill:#F95428;" d="M180.138,208.023h7.252v20.899h-69.101c-8.761,0-16.118-14.4-18.09-33.802
		c-0.348-3.354-0.534-6.846-0.534-10.455c0-12.219,2.089-23.277,5.454-31.296c3.377-8.007,8.03-12.962,13.17-12.962h69.101v30.866
		h-7.252V208.023z"/>
	<path style="fill:#F95428;" d="M118.289,228.922H96.392c-20.841,0-38.316-14.412-43.004-33.802
		c-0.824-3.354-1.253-6.858-1.253-10.455c0-12.219,4.955-23.277,12.962-31.296c8.018-8.007,19.077-12.962,31.296-12.962h21.897
		c-5.141,0-9.794,4.955-13.17,12.962c-3.365,8.018-5.454,19.077-5.454,31.296c0,3.609,0.186,7.102,0.534,10.455
		C102.171,214.521,109.528,228.922,118.289,228.922z"/>
</g>
<g>
	<path style="fill:#E54728;" d="M180.138,208.023h7.252v20.899H96.392c-20.841,0-38.316-14.412-43.004-33.802h126.749V208.023z"/>
	<polygon style="fill:#E54728;" points="312.538,208.023 319.779,208.023 319.779,228.922 235.651,228.922 235.651,208.023 
		242.892,208.023 242.892,195.12 312.538,195.12 	"/>
	<path style="fill:#E54728;" d="M502.042,195.12c-4.688,19.39-22.163,33.802-43.004,33.802h-90.986v-20.899h7.241V195.12
		L502.042,195.12L502.042,195.12z"/>
</g>
<path style="fill:#F7B239;" d="M407.713,228.922v57.323h-24.705v30.24v21.966H346.77v-21.966v-30.24h-55.687v23.266H253.59v18.775
	h-22.628c-16.037,0-29.033,12.996-29.033,29.033v8.366v35.937c0,16.037,12.996,29.033,29.033,29.033h30.588v41.333H147.705V365.697
	v-60.491v-76.284h39.685v6.858l24.136,21.653l24.125-21.653v-6.858h84.128v6.858l24.136,21.653l24.136-21.653v-6.858
	L407.713,228.922L407.713,228.922z"/>
<path style="fill:#E09B2D;" d="M407.713,228.922H177.098h-29.393v26.535v216.532h29.393V272.106c0-9.195,7.454-16.649,16.649-16.649
	h213.967V228.922z"/>
<path style="fill:#9AD14B;" d="M88.525,275.465v47.031h-4.421c-0.186-0.012-0.36-0.012-0.545-0.012H46.449
	c-0.325,0-0.65,0-0.975,0.012h-3.98v-47.031H88.525L88.525,275.465z"/>
<path style="fill:#90BC42;" d="M61.831,275.465v47.031h-1.912c-0.08-0.012-0.155-0.012-0.236-0.012H43.636
	c-0.14,0-0.281,0-0.421,0.012h-1.721v-47.031H61.831L61.831,275.465z"/>
<path style="fill:#9AD14B;" d="M106.801,365.697v98.273c-6.405,5.024-14.482,8.018-23.243,8.018H46.449
	c-20.841,0-37.747-16.907-37.747-37.759v-73.986c0-20.527,16.385-37.225,36.773-37.747h38.629
	c8.552,0.116,16.431,3.087,22.697,8.007V365.697z"/>
<path style="fill:#90BC42;" d="M36.781,434.229v-73.986c0-20.527,16.385-37.225,36.773-37.747H45.475
	c-20.388,0.522-36.773,17.22-36.773,37.747v73.986c0,20.852,16.907,37.759,37.747,37.759h28.079
	C53.688,471.989,36.781,455.082,36.781,434.229z"/>
<path style="fill:#B27214;" d="M147.705,305.206v60.491h-40.904v-35.195v-7.171c0-10.014,8.111-18.125,18.125-18.125
	L147.705,305.206L147.705,305.206z"/>
<polygon style="fill:#E09B2D;" points="147.705,365.697 147.705,471.989 106.801,471.989 106.801,463.97 106.801,365.697 "/>
<g>
	<polygon style="fill:#666666;" points="468.239,420.804 468.239,471.989 407.713,471.989 383.009,471.989 383.009,420.804 	"/>
	<polygon style="fill:#666666;" points="346.77,420.804 346.77,471.989 261.551,471.989 261.551,430.656 261.551,420.804 
		346.236,420.804 	"/>
</g>
<g>
	<polygon style="fill:#4D4D4D;" points="290.816,420.804 290.816,471.989 261.551,471.989 261.551,430.656 261.551,420.804 
		290.632,420.804 	"/>
	<polygon style="fill:#4D4D4D;" points="412.274,420.804 412.274,471.989 383.009,471.989 383.009,430.656 383.009,420.804 
		412.09,420.804 	"/>
</g>
<rect x="346.771" y="338.451" style="fill:#666666;" width="36.239" height="60.387"/>
<polygon style="fill:#808080;" points="346.77,286.245 346.77,316.485 291.083,316.485 291.083,309.511 291.083,286.245 "/>
<polygon style="fill:#666666;" points="314.024,286.245 314.024,316.485 291.083,316.485 291.083,309.511 291.083,286.245 "/>
<polygon style="fill:#999999;" points="438.707,316.485 468.239,420.804 383.009,420.804 383.009,398.838 383.009,338.451 
	383.009,316.485 "/>
<g>
	<polygon style="fill:#808080;" points="403.319,316.485 414.087,420.804 383.009,420.804 383.009,398.838 383.009,338.451 
		383.009,316.485 	"/>
	<polygon style="fill:#808080;" points="438.707,286.245 438.707,316.485 383.009,316.485 383.009,286.245 407.713,286.245 	"/>
</g>
<polygon style="fill:#666666;" points="406.832,286.245 406.832,316.485 383.891,316.485 383.891,309.511 383.891,286.245 "/>
<g>
	<path style="fill:#F7B239;" d="M407.713,139.549v0.859H368.04V85.672C391.027,92.796,407.713,114.217,407.713,139.549z"/>
	<polygon style="fill:#F7B239;" points="383.009,420.804 383.009,471.989 346.77,471.989 346.77,420.804 346.77,420.189 
		346.77,398.838 383.009,398.838 	"/>
	<polygon style="fill:#F7B239;" points="375.292,171.274 375.292,208.023 368.051,208.023 319.779,208.023 312.538,208.023 
		312.538,171.274 319.779,171.274 368.04,171.274 	"/>
</g>
<polygon style="fill:#B27214;" points="368.051,228.922 368.051,235.78 343.915,257.433 319.779,235.78 319.779,228.922 
	319.779,208.023 368.051,208.023 "/>
<path style="fill:#999999;" d="M346.77,398.838v21.351c-0.162,0.209-0.337,0.418-0.534,0.615h-84.685l10.826-38.246l18.706-66.073
	h55.687v21.966V398.838z"/>
<polygon style="fill:#808080;" points="318.932,316.485 291.081,316.485 272.377,382.557 261.551,420.804 289.4,420.804 
	300.227,382.557 "/>
<rect x="235.64" y="83.165" style="fill:#F7B239;" width="84.14" height="57.242"/>
<path style="fill:#E09B2D;" d="M347.153,120.354v20.053h-48.261v-20.053V83.165h31.563c5.814,0,11.418,0.573,16.698,1.628
	L347.153,120.354L347.153,120.354z"/>
<g>
	<polygon style="fill:#B27214;" points="291.083,309.511 291.083,316.485 272.377,382.557 253.59,365.685 253.59,328.286 
		253.59,309.511 	"/>
	<path style="fill:#B27214;" d="M368.04,140.407v30.866h-48.261v-30.866V83.165h31.563c5.814,0,11.418,0.882,16.698,2.506
		L368.04,140.407L368.04,140.407z"/>
	<path style="fill:#B27214;" d="M272.377,382.557l-10.826,38.246v9.852h-30.588c-16.037,0-29.033-12.996-29.033-29.033v-35.937
		h51.661L272.377,382.557z"/>
	<path style="fill:#B27214;" d="M253.59,328.286v37.399H201.93v-8.366c0-16.037,12.996-29.033,29.033-29.033L253.59,328.286
		L253.59,328.286z"/>
</g>
<polygon style="fill:#F7B239;" points="242.892,171.274 242.892,208.023 235.651,208.023 187.39,208.023 180.138,208.023 
	180.138,171.274 187.39,171.274 235.639,171.274 "/>
<g>
	<polygon style="fill:#B27214;" points="235.651,228.922 235.651,235.78 211.526,257.433 187.39,235.78 187.39,228.922 
		187.39,208.023 235.651,208.023 	"/>
	<path style="fill:#B27214;" d="M235.639,140.407v30.866H187.39v-30.866V85.672c5.268-1.625,10.873-2.506,16.686-2.506h31.563
		V140.407z"/>
</g>
<g>
	<path style="fill:#995C0D;" d="M235.639,222.551v7.377H187.39v-7.377V209.47c5.268-0.389,10.873-0.599,16.686-0.599h31.563V222.551
		z"/>
	<path style="fill:#995C0D;" d="M367.924,222.551v7.377h-48.249v-7.377V209.47c5.268-0.389,10.873-0.599,16.686-0.599h31.563
		L367.924,222.551L367.924,222.551z"/>
</g>
<path style="fill:#E09B2D;" d="M187.39,85.672v54.736h-39.685v-0.859C147.705,114.217,164.403,92.796,187.39,85.672z"/>
<g>
	<path style="fill:#FFFFFF;" d="M436.202,402.093c-3.796,0-7.284-2.502-8.37-6.335l-8.102-28.621
		c-1.309-4.625,1.379-9.435,6.004-10.744c4.624-1.31,9.435,1.379,10.745,6.003l8.102,28.621c1.309,4.625-1.379,9.435-6.004,10.744
		C437.785,401.986,436.988,402.093,436.202,402.093z"/>
	<path style="fill:#FFFFFF;" d="M83.492,417.331c-4.807,0-8.703-3.897-8.703-8.703v-57.246c0-4.806,3.895-8.703,8.703-8.703
		s8.703,3.897,8.703,8.703v57.246C92.195,413.434,88.299,417.331,83.492,417.331z"/>
	<circle style="fill:#FFFFFF;" cx="421.198" cy="340.377" r="8.703"/>
	<circle style="fill:#FFFFFF;" cx="69.182" cy="294.913" r="8.703"/>
</g>
<path style="fill:#333333;" d="M459.041,237.626c29.202,0,52.96-23.758,52.96-52.96c0-14.134-5.507-27.432-15.514-37.454
	c-10.013-9.999-23.311-15.506-37.446-15.506h-43.112c-3.887-32.201-31.358-57.242-64.585-57.242h-4.016V58.538
	c0-15.014-12.215-27.23-27.231-27.23h-84.786c-15.014,0-27.23,12.215-27.23,27.23v15.926h-4.001
	c-33.227,0-60.698,25.041-64.585,57.242h-21.2l0,0c-0.006,0-0.013,0-0.019,0H96.392c-14.132,0-27.432,5.507-37.453,15.514
	c-9.999,10.013-15.506,23.312-15.506,37.446c0,29.202,23.758,52.96,52.96,52.96h42.612v58.882h-14.081
	c-12.398,0-22.853,8.457-25.912,19.903c-0.592-0.209-1.188-0.405-1.789-0.589v-40.357c0-4.806-3.895-8.703-8.703-8.703H41.494
	c-4.807,0-8.703,3.897-8.703,8.703v40.373C13.825,321.684,0,339.379,0,360.244v73.99c0,25.618,20.836,46.459,46.446,46.459
	l421.788-0.002c4.807,0,8.703-3.897,8.703-8.703v-51.179c0-0.802-0.111-1.599-0.328-2.37l-29.197-103.164v-29.031
	c0-4.806-3.895-8.703-8.703-8.703h-22.291v-39.914h42.623V237.626z M437.129,220.22h-0.002
	C437.128,220.22,437.128,220.22,437.129,220.22L437.129,220.22z M458.323,149.99c-0.126-0.301-0.256-0.587-0.385-0.878h1.104
	c9.49,0,18.419,3.699,25.138,10.408c6.716,6.727,10.417,15.657,10.417,25.147c0,19.605-15.95,35.554-35.554,35.554h-1.167
	c4.356-9.855,6.589-22.739,6.589-35.554C464.462,171.725,462.283,159.413,458.323,149.99z M376.745,99.233
	c11.259,7.122,19.341,18.824,21.611,32.472h-21.611V99.233z M321.239,199.319v-19.34h45.346v19.34L321.239,199.319L321.239,199.319z
	 M359.345,216.725v15.173l-15.432,13.845l-15.431-13.845v-15.173H359.345z M351.343,91.869c2.726,0,5.393,0.243,7.996,0.683v70.02
	h-30.855V91.869H351.343z M225.486,58.538c0-5.417,4.407-9.824,9.824-9.824h84.786c5.418,0,9.825,4.407,9.825,9.824v15.926H225.486
	V58.538z M311.076,216.593v3.627h-66.728v-3.626c4.114-0.693,7.25-4.262,7.25-8.572v-36.746c0-4.312-3.139-7.881-7.255-8.573
	v-13.592h66.735v13.593c-4.111,0.695-7.245,4.262-7.245,8.572v36.746C303.833,212.33,306.966,215.898,311.076,216.593z
	 M244.343,131.705V91.869h66.735v39.836H244.343z M196.094,92.552c2.598-0.44,5.264-0.682,7.985-0.682h22.859v70.704h-30.843V92.552
	z M188.845,179.98h45.347v19.34h-45.347V179.98z M226.942,216.725v15.174l-15.419,13.842l-15.43-13.843v-15.173H226.942z
	 M178.688,99.226v32.48h-21.623C159.337,118.052,167.423,106.349,178.688,99.226z M96.392,220.22
	c-19.605,0-35.554-15.95-35.554-35.554c0-9.489,3.699-18.42,10.409-25.138c6.727-6.717,15.657-10.417,25.146-10.417h1.092
	c-0.13,0.294-0.261,0.583-0.389,0.887c-3.957,9.415-6.136,21.727-6.136,34.668c0,12.815,2.233,25.699,6.589,35.554L96.392,220.22
	L96.392,220.22z M118.292,220.22L118.292,220.22c0.001,0,0.001,0,0.002,0H118.292z M118.398,220.22
	c-2.801-0.923-10.032-13.096-10.032-35.554c0-10.524,1.741-20.701,4.773-27.915c2.379-5.645,4.69-7.424,5.259-7.639h60.292v13.593
	c-4.114,0.693-7.249,4.262-7.249,8.572v36.746c0,4.31,3.135,7.878,7.248,8.572v3.626H118.398z M115.508,323.33
	c0-5.192,4.224-9.417,9.415-9.417h14.08v43.077h-23.496V323.33z M115.508,374.396h23.496v88.888h-23.496V374.396z M50.197,284.168
	h29.619v29.618H50.197V284.168z M46.446,463.287c-16.013,0-29.04-13.033-29.04-29.053v-73.99c0-15.99,12.979-29.003,28.951-29.05
	h37.257c5.178,0.009,10.11,1.368,14.487,3.924v124.243c-4.387,2.562-9.334,3.923-14.526,3.926h-0.017l0,0H46.446z M253.179,418.439
	c-0.218,0.771-0.328,1.569-0.328,2.37v1.139h-21.888c-11.207,0-20.327-9.118-20.327-20.325v-27.229h39.618l12.273,11.013
	L253.179,418.439z M210.651,356.988c0.179-11.055,9.214-19.996,20.309-19.996h13.921v19.996H210.651z M262.288,361.807v-43.595
	h19.255l-13.739,48.545L262.288,361.807z M338.071,463.285h-67.817v-33.773h67.815v33.773H338.071z M338.071,338.45v60.392v13.263
	h-65.011l24.599-86.92h40.412V338.45z M338.071,307.781h-38.291v-12.834h38.291L338.071,307.781L338.071,307.781z M374.309,463.287
	h-18.832v-55.742h18.832V463.287z M374.309,390.139h-18.832v-42.987h18.832V390.139z M374.309,286.244v30.24v13.263h-18.832v-13.263
	v-30.24c0-4.806-3.895-8.703-8.703-8.703h-55.696c-4.808,0-8.703,3.897-8.703,8.703v14.563h-28.79c-4.807,0-8.703,3.897-8.703,8.703
	v10.077h-13.921c-20.806,0-37.732,16.927-37.732,37.732v44.305c0,20.806,16.927,37.731,37.732,37.731h21.888v23.933H156.41V237.627
	h22.477c0.385,1.774,1.318,3.401,2.692,4.633l24.135,21.653c1.654,1.484,3.733,2.224,5.812,2.224c2.079,0,4.16-0.743,5.814-2.227
	l24.12-21.653c1.374-1.234,2.307-2.859,2.691-4.632h67.126c0.385,1.774,1.318,3.401,2.692,4.633l24.134,21.653
	c1.654,1.484,3.733,2.226,5.812,2.226s4.159-0.741,5.812-2.224l24.135-21.653c1.374-1.234,2.307-2.859,2.692-4.633h22.461v39.914
	h-15.999C378.206,277.541,374.309,281.438,374.309,286.244z M459.532,463.285h-67.816v-33.773h67.816V463.285z M456.727,412.106
	h-65.011v-13.263V338.45v-13.263h40.412L456.727,412.106z M430.006,294.947v12.834h-38.291v-12.834L430.006,294.947L430.006,294.947
	z M376.751,220.22v-3.629c4.109-0.697,7.24-4.263,7.24-8.571v-36.746c0-4.309-3.134-7.877-7.245-8.572V149.11h60.28
	c0.569,0.215,2.88,1.994,5.255,7.631c3.036,7.222,4.776,17.4,4.776,27.924c0,22.459-7.23,34.633-10.032,35.554h-60.274V220.22z"/>
<g>
</g>
<g>
</g>
<g>
</g>
<g>
</g>
<g>
</g>
<g>
</g>
<g>
</g>
<g>
</g>
<g>
</g>
<g>
</g>
<g>
</g>
<g>
</g>
<g>
</g>
<g>
</g>
<g>
</g>
</svg>
